<?xml version="1.0" encoding="UTF-8" standalone="no"?>
<!DOCTYPE svg PUBLIC "-//W3C//DTD SVG 1.1//EN" "http://www.w3.org/Graphics/SVG/1.1/DTD/svg11.dtd">
<svg width="100%" height="100%" viewBox="0 0 100 98" version="1.1" xmlns="http://www.w3.org/2000/svg" xmlns:xlink="http://www.w3.org/1999/xlink" xml:space="preserve" xmlns:serif="http://www.serif.com/" style="fill-rule:evenodd;clip-rule:evenodd;stroke-linejoin:round;stroke-miterlimit:2;">
    <g transform="matrix(4.02055,0,0,3.85605,-897.229,-3436.69)">
        <path id="sena_logo" d="M235.676,891.691C234.229,891.691 233.039,892.93 233.039,894.435C233.039,894.435 233.039,894.435 233.039,894.435C233.039,895.94 234.229,897.179 235.676,897.179C235.676,897.179 235.676,897.179 235.676,897.179C237.123,897.179 238.313,895.94 238.313,894.435C238.313,892.93 237.123,891.691 235.676,891.691ZM239.104,898.025L239.102,900.538L236.978,898.026L234.975,898.027L234.975,901.715L236.445,901.714L236.466,899.27L238.513,901.712L240.572,901.72L240.591,898.036L239.104,898.026L239.104,898.025ZM230.062,898.026L230.062,898.026L230.034,901.718L234.309,901.713L234.313,900.891L231.601,900.889L231.612,900.193L234.023,900.181L234.023,899.395L231.623,899.441L231.623,898.86L234.223,898.852L234.228,898.03L230.062,898.027L230.062,898.026ZM244.808,898.027L243.105,898.027L240.691,901.717L242.225,901.719L242.591,901.015L245.078,901.028L245.448,901.717L247.094,901.716L244.808,898.027L244.808,898.027ZM227.171,898.027C227.09,898.027 226.998,898.027 226.892,898.028C226.388,898.032 226.361,898.033 226.071,898.07C225.66,898.124 225.34,898.217 225.094,898.355C224.876,898.477 224.711,898.655 224.648,898.836C224.628,898.891 224.612,898.995 224.608,899.079C224.602,899.219 224.629,899.353 224.687,899.472C224.72,899.538 224.728,899.552 224.787,899.624C224.938,899.807 225.16,899.923 225.603,900.048C225.889,900.129 226.17,900.188 226.773,900.292C227.218,900.37 227.334,900.394 227.48,900.443C227.603,900.484 227.724,900.549 227.767,900.597C227.823,900.659 227.81,900.763 227.738,900.828C227.658,900.901 227.505,900.958 227.323,900.982C227.143,901.005 226.765,901 226.583,900.972C226.298,900.927 226.123,900.828 226.085,900.688C226.08,900.669 226.072,900.615 226.07,900.568L226.065,900.483L225.955,900.48C225.895,900.479 225.552,900.48 225.193,900.483L224.54,900.488L224.54,900.537C224.54,900.601 224.556,900.73 224.572,900.802C224.665,901.202 224.963,901.453 225.505,901.591C225.7,901.64 225.984,901.685 226.218,901.704C226.458,901.722 226.947,901.728 227.261,901.717C228.373,901.674 229.122,901.398 229.35,900.947C229.407,900.835 229.433,900.72 229.433,900.589C229.434,900.42 229.392,900.276 229.302,900.138C229.179,899.95 229.013,899.828 228.719,899.71C228.454,899.603 228.171,899.536 227.527,899.426C226.915,899.322 226.739,899.285 226.547,899.221C226.411,899.176 226.286,899.099 226.26,899.044C226.245,899.013 226.245,898.953 226.261,898.918C226.3,898.827 226.48,898.758 226.73,898.737C226.897,898.723 227.146,898.731 227.308,898.755C227.485,898.781 227.65,898.844 227.719,898.913C227.749,898.943 227.783,899.011 227.8,899.074C227.809,899.109 227.815,899.121 227.826,899.123C227.833,899.126 228.16,899.126 228.551,899.126L229.262,899.123L229.264,899.078C229.267,899.021 229.252,898.915 229.229,898.836C229.111,898.42 228.677,898.169 227.9,898.067C227.669,898.037 227.522,898.028 227.172,898.027L227.171,898.027ZM243.868,898.934L244.632,900.276L243.059,900.266L243.868,898.934L243.868,898.934ZM234.707,902.5L223.444,902.508L223.444,904.461L227.074,904.461C230.554,904.461 230.707,904.463 230.813,904.515C230.955,904.582 231.038,904.727 231.057,904.936C231.084,905.248 231.132,904.921 228.34,910.001L226.682,912.967L228.021,914.279L234.707,902.5L234.707,902.5ZM236.459,902.51L243.154,914.256L244.517,912.961L242.838,909.987C240.038,904.974 240.091,905.221 240.118,904.914C240.137,904.707 240.22,904.565 240.363,904.498C240.468,904.448 240.623,904.445 244.111,904.445L247.749,904.445L247.749,902.518L236.459,902.509L236.459,902.51ZM235.552,904.564L229.459,915.367L231.045,916.151L234.517,909.98L235.098,908.894C235.174,908.753 235.266,908.698 235.544,908.697C235.799,908.698 235.901,908.768 235.993,908.891L236.633,910.006L240.182,916.213L241.802,915.26L235.552,904.564Z" style="fill:white;"/>
    </g>
</svg>
